HIERARCHY
ROOT Hips
{
	OFFSET -0.179506 -22.333345 2.821913
	CHANNELS 6 Xposition Yposition Zposition Zrotation Yrotation Xrotation 
	JOINT LeftUpLeg
	{
		OFFSET 6.951974 -9.140623 -0.681533
		CHANNELS 3 Zrotation Yrotation Xrotation
		JOINT LeftLeg
		{
			OFFSET 3.427654 -37.519855 -0.449580
			CHANNELS 3 Zrotation Yrotation Xrotation
			JOINT LeftFoot
			{
				OFFSET -1.359570 -39.796059 -4.369333
				CHANNELS 3 Zrotation Yrotation Xrotation
				JOINT LeftToe
				{
					OFFSET 2.635814 -5.579078 11.928840
					CHANNELS 3 Zrotation Yrotation Xrotation
					End Site
					{
						OFFSET 0.000000 0.000000 0.000000
					}
				}
			}
		}
	}
	JOINT RightUpLeg
	{
		OFFSET -6.767048 -9.052170 -0.431982
		CHANNELS 3 Zrotation Yrotation Xrotation
		JOINT RightLeg
		{
			OFFSET -3.829005 -38.256897 -0.885003
			CHANNELS 3 Zrotation Yrotation Xrotation
			JOINT RightFoot
			{
				OFFSET 1.577377 -39.841461 -4.231180
				CHANNELS 3 Zrotation Yrotation Xrotation
				JOINT RightToe
				{
					OFFSET -2.537174 -4.814398 12.334795
					CHANNELS 3 Zrotation Yrotation Xrotation
					End Site
					{
						OFFSET 0.000000 0.000000 0.000000
					}
				}
			}
		}
	}
	JOINT Spine
	{
		OFFSET -0.253288 10.896323 -2.669631
		CHANNELS 3 Zrotation Yrotation Xrotation
		JOINT Spine1
		{
			OFFSET 0.548704 13.518043 0.109247
			CHANNELS 3 Zrotation Yrotation Xrotation
			JOINT Spine2
			{
				OFFSET 0.145701 5.292222 2.542457
				CHANNELS 3 Zrotation Yrotation Xrotation
				JOINT Neck
				{
					OFFSET -0.277840 21.387037 -4.285703
					CHANNELS 3 Zrotation Yrotation Xrotation
					JOINT Head
					{
						OFFSET 0.515184 6.496960 5.134897
						CHANNELS 3 Zrotation Yrotation Xrotation
						End Site
						{
							OFFSET 0.000000 0.000000 0.000000
						}
					}
				}
				JOINT LeftShoulder
				{
					OFFSET 7.884473 12.174932 -3.408961
					CHANNELS 3 Zrotation Yrotation Xrotation
					JOINT LeftArm
					{
						OFFSET 9.097692 3.046888 -0.886815
						CHANNELS 3 Zrotation Yrotation Xrotation
						JOINT LeftForeArm
						{
							OFFSET 25.961220 -1.277207 -2.745643
							CHANNELS 3 Zrotation Yrotation Xrotation
							JOINT LeftHand
							{
								OFFSET 24.923361 0.898606 -0.117091
								CHANNELS 3 Zrotation Yrotation Xrotation
								End Site
								{
									OFFSET 0.000000 0.000000 0.000000
								}
							}
						}
					}
				}
				JOINT RightShoulder
				{
					OFFSET -8.175920 11.883285 -3.861528
					CHANNELS 3 Zrotation Yrotation Xrotation
					JOINT RightArm
					{
						OFFSET -9.601238 3.255117 -0.914307
						CHANNELS 3 Zrotation Yrotation Xrotation
						JOINT RightForeArm
						{
							OFFSET -25.374195 -1.332924 -2.140099
							CHANNELS 3 Zrotation Yrotation Xrotation
							JOINT RightHand
							{
								OFFSET -25.529810 0.777228 -0.555919
								CHANNELS 3 Zrotation Yrotation Xrotation
								End Site
								{
									OFFSET 0.000000 0.000000 0.000000
								}
							}
						}
					}
				}
			}
		}
	}
}
MOTION
Frames: 15
Frame Time: 0.033333
5.345062 -49.958725 18.016964 -171.727545 -4.697196 1.320226 29.676121 -4.036736 -69.760862 -3.141737 33.721909 133.543304 2.449295 -9.527930 6.010770 nan nan nan -24.534687 -15.155900 -56.387970 -1.051310 -14.289627 102.173144 14.185283 10.802738 20.540873 nan nan nan 5.065415 -6.915318 73.492690 -5.319844 -5.053542 0.341710 -5.055580 -2.039401 4.885993 -12.011611 -2.478611 54.450201 18.580183 10.253428 7.637957 -16.056848 -11.786966 16.531097 -45.147513 12.608874 0.388458 -18.400591 -58.229508 33.558824 2.927722 -23.536743 -12.359715 -1.071429 17.003723 21.273165 83.503178 -15.253656 6.361930 28.373785 50.153392 52.689377 -43.767007 15.659458 -2.837191 
5.401893 -49.910671 17.997459 -171.891932 -4.663907 1.253676 29.612093 -3.892029 -69.637460 -3.354500 33.442065 133.713161 2.593112 -9.478656 5.853627 nan nan nan -24.757292 -15.345035 -56.803591 -1.010299 -14.137488 103.253656 14.106306 11.026290 20.561811 nan nan nan 5.075204 -7.053227 74.040573 -5.322515 -4.997498 0.081172 -5.003384 -1.952892 5.034705 -11.968939 -2.473603 54.508557 18.671359 10.257740 7.467721 -15.798215 -12.249923 16.352886 -45.397806 12.311275 0.308773 -18.393126 -57.584880 33.539729 2.267355 -23.428685 -12.557082 -1.432521 17.324756 21.041836 83.968603 -15.040971 6.340672 27.975500 49.733313 52.909529 -43.394550 15.153149 -2.334795 
5.517560 -49.851799 18.027050 -172.138854 -4.682867 1.113244 29.725657 -3.742158 -69.294396 -3.514762 33.169191 133.977554 2.717859 -9.464428 5.632803 nan nan nan -24.909292 -15.399484 -57.064377 -1.197017 -13.972518 104.378821 14.190710 11.247060 20.690402 nan nan nan 5.106156 -7.113138 74.614935 -5.359121 -4.925041 -0.142831 -4.943756 -1.842337 5.205683 -11.856958 -2.406302 54.607505 18.821235 10.172411 7.273952 -15.553030 -12.791982 16.162790 -45.499586 12.205699 0.433811 -18.670565 -57.132346 33.910761 2.214839 -23.111292 -12.320421 -1.594453 17.723640 20.764304 84.419284 -14.850632 6.248098 27.441389 49.233414 52.492079 -43.439597 14.915226 -2.674819 
5.614623 -49.802059 18.059877 -172.371262 -4.759698 0.993089 29.850168 -3.594519 -68.889056 -3.547578 32.976849 134.267947 2.782367 -9.400839 5.561011 nan nan nan -25.050533 -15.415694 -57.347307 -1.123605 -13.797517 105.355650 14.145790 11.427678 20.728317 nan nan nan 5.097319 -7.189822 75.144562 -5.432087 -4.811175 -0.261639 -4.899729 -1.832757 5.195320 -11.934874 -2.346630 54.690872 18.841118 10.170637 7.342179 -15.411488 -13.303858 16.076969 -45.548713 12.241469 0.608773 -19.118626 -56.803821 34.826851 2.908138 -22.714386 -12.044100 -1.771583 18.363667 20.642441 85.006968 -14.519190 6.085150 26.823754 48.629070 51.683468 -44.127589 15.042055 -3.563346 
5.622395 -49.747337 18.057730 -172.610420 -5.067991 0.957036 30.058720 -3.304170 -68.520017 -3.509119 32.907698 134.569500 2.916567 -9.342575 5.494135 nan nan nan -25.184608 -15.291334 -57.842437 -0.752227 -13.717810 106.163405 14.001552 11.428565 20.850273 nan nan nan 5.012182 -7.281895 75.555799 -5.595380 -4.558687 -0.284437 -4.937360 -1.877243 5.166262 -12.183430 -2.302162 54.645340 18.803036 10.149561 7.475503 -15.215371 -13.693715 16.066388 -45.641599 12.053138 0.665988 -19.397913 -56.330687 35.406480 3.504504 -22.543320 -12.288066 -2.090579 18.972654 20.601475 85.537898 -14.085908 6.157613 26.292177 48.115653 51.065717 -44.847143 14.925421 -3.827725 
5.650314 -49.671814 18.057079 -172.829069 -5.091681 0.936505 30.180475 -3.201984 -68.343832 -3.688576 32.805208 134.785351 3.110740 -9.270233 5.244569 nan nan nan -25.527118 -15.362265 -58.101994 -0.639917 -13.777210 107.093176 14.075069 11.496327 20.944150 nan nan nan 5.037882 -7.415273 75.896937 -5.614870 -4.495912 -0.311184 -4.977082 -1.897092 5.239038 -12.271283 -2.297181 54.596296 18.796377 9.994032 7.456680 -14.859184 -14.080881 16.012761 -45.893145 11.865059 0.709629 -19.373289 -55.904355 35.318800 3.607971 -22.393134 -12.487299 -2.268972 19.470377 20.465411 85.832545 -13.779079 6.394476 25.787599 47.765432 50.682806 -44.882298 14.605112 -3.117816 
5.649278 -49.585773 18.061655 -173.029517 -5.061698 0.938687 30.180808 -3.182396 -68.248698 -3.842042 32.674160 135.023431 3.115543 -9.221397 5.138879 nan nan nan -25.853450 -15.501594 -58.346932 -0.605378 -13.711422 108.013918 14.205104 11.587514 20.979846 nan nan nan 5.277063 -7.558308 76.153012 -5.656994 -4.600640 -0.371078 -5.009469 -1.925498 5.354689 -12.240996 -2.257087 54.521720 18.771330 9.870311 7.427051 -14.483047 -14.556708 15.956127 -46.225472 11.751664 0.757485 -19.276827 -55.444083 35.118678 3.328339 -22.279701 -12.444691 -2.434284 19.928991 20.312840 86.057585 -13.553085 6.538185 25.375039 47.444609 50.418103 -44.578892 14.302826 -2.422254 
5.640117 -49.541199 18.075874 -173.134388 -5.057819 0.969355 29.856369 -3.119587 -68.118403 -3.925175 32.432063 135.215470 3.178067 -9.111848 5.113102 nan nan nan -26.085645 -15.675111 -58.676169 -0.504882 -13.461708 108.828641 14.284071 11.578050 20.980476 nan nan nan 5.312925 -7.681812 76.513502 -5.658883 -4.661460 -0.615655 -4.948155 -1.921932 5.438349 -12.288022 -2.008693 54.468797 18.815831 9.789503 7.427040 -14.237286 -14.884545 15.893664 -46.359893 11.519037 0.769263 -19.582150 -54.695020 35.230600 3.316343 -22.463553 -12.778882 -2.719300 20.399162 20.367153 86.359041 -13.122585 6.552957 25.093133 47.014728 50.081525 -44.519803 14.203853 -2.345376 
5.632473 -49.560726 18.119234 -173.179409 -5.094498 1.052174 29.520254 -3.022107 -67.918214 -3.923306 32.282690 135.391172 3.628329 -8.807322 4.751097 nan nan nan -26.313239 -15.856192 -59.122246 -0.305167 -13.190306 109.606387 14.300251 11.583032 21.007702 nan nan nan 5.153198 -7.679928 76.796787 -5.612334 -4.652252 -0.825486 -4.888023 -1.843286 5.494961 -12.306896 -1.851650 54.439248 18.893731 9.731478 7.472679 -13.890462 -15.176992 15.865194 -46.384570 11.274995 0.910091 -20.222904 -54.004797 35.555353 3.895563 -22.668470 -13.724362 -2.868337 20.788781 20.369493 86.479670 -12.718331 6.753539 24.884644 46.528645 49.622788 -44.961965 14.082634 -2.461861 
5.641344 -49.559200 18.158140 -173.303420 -5.142469 1.141726 29.330002 -2.865427 -67.700196 -3.951811 32.136399 135.563151 4.070327 -8.408481 4.186831 nan nan nan -26.479518 -15.955962 -59.532291 -0.113655 -12.962626 110.378322 14.351407 11.622655 21.025539 nan nan nan 5.001762 -7.726181 77.140775 -5.632237 -4.641173 -1.081754 -4.906846 -1.843212 5.547506 -12.337815 -1.750482 54.339117 18.892083 9.756851 7.586708 -13.495206 -15.362678 15.824132 -46.425079 11.224878 1.016493 -20.878338 -53.474641 36.277987 4.448004 -22.829945 -14.628499 -2.895555 21.205118 20.312857 86.477528 -12.326774 7.040215 24.697369 45.961879 49.251569 -45.476189 13.846264 -2.581295 
5.678413 -49.494186 18.174372 -173.673864 -5.118823 1.240570 29.543858 -2.749282 -67.552203 -4.047097 31.948664 135.707056 4.021721 -8.273897 3.918434 nan nan nan -26.545352 -15.953919 -59.725407 -0.131226 -12.940734 111.130650 14.282605 11.789280 20.914629 nan nan nan 5.120829 -7.945285 77.491949 -5.686433 -4.601989 -1.422953 -5.042309 -1.902964 5.708751 -12.188790 -1.582813 54.050877 18.846096 9.644642 7.882762 -13.083308 -15.482637 15.645204 -46.646162 11.190146 1.039616 -20.939501 -52.858152 36.767339 4.444909 -23.247673 -15.113952 -2.877444 21.593609 20.185951 86.537403 -11.893250 7.294110 24.257847 45.276249 48.740913 -46.082220 13.661750 -3.057285 
5.718232 -49.408279 18.195547 -174.098140 -5.065593 1.377558 29.863729 -2.680595 -67.456658 -4.153667 31.791782 135.832084 4.151690 -8.236128 3.644020 nan nan nan -26.650685 -15.986406 -59.849060 -0.132798 -13.076282 111.833734 14.124406 11.970849 20.848938 nan nan nan 5.286959 -8.134669 77.673022 -5.689484 -4.508348 -1.644725 -5.077069 -1.846798 5.879732 -12.082749 -1.421777 53.899579 18.807735 9.405689 8.001508 -12.853823 -15.697171 15.495438 -46.851561 11.080981 0.992083 -20.898626 -52.283191 36.758527 4.231518 -23.366247 -14.872982 -3.063583 21.972655 20.086570 86.848423 -11.491206 7.335115 23.681043 44.586002 48.240443 -46.601887 13.639616 -3.259025 
5.733340 -49.320007 18.216234 -174.424665 -5.076748 1.506473 29.981048 -2.638451 -67.310742 -4.187412 31.561309 135.939386 4.450292 -8.181831 3.203505 nan nan nan -26.760469 -16.003623 -60.081527 -0.010846 -13.116156 112.514598 13.977575 11.999899 20.837442 nan nan nan 5.305552 -8.221318 77.890746 -5.681879 -4.395831 -1.834443 -4.998472 -1.721149 5.926104 -12.177569 -1.460609 53.911094 18.709959 9.253700 8.012815 -12.868501 -15.983933 15.608977 -47.060623 10.941902 0.803524 -20.705239 -51.901132 36.491110 3.769347 -23.319680 -14.463681 -3.267364 22.379737 19.997401 87.314827 -11.228343 7.283443 22.885014 43.974736 47.516629 -46.803917 13.629251 -3.205297 
5.743161 -49.245422 18.229944 -174.718301 -5.146833 1.599961 30.123854 -2.623729 -67.099092 -4.153570 31.316829 136.013675 4.498634 -8.131150 2.781626 nan nan nan -26.776113 -15.928545 -60.404423 0.177589 -13.034904 113.198137 13.797317 11.885272 20.845411 nan nan nan 5.191878 -8.212330 78.248218 -5.692945 -4.253574 -2.113579 -4.913093 -1.566499 5.971205 -12.163036 -1.563189 53.827261 18.652108 9.002914 8.061163 -12.747096 -16.179472 15.722408 -47.352317 10.760703 0.684971 -20.393399 -51.623514 36.614845 3.241493 -23.431789 -14.241147 -3.296021 22.628892 19.914780 87.529719 -11.052148 7.348198 22.262933 43.447615 47.072243 -47.336992 13.472401 -3.336662 
5.768060 -49.187881 18.250677 -174.993088 -5.262054 1.684331 30.279193 -2.573915 -66.817860 -4.173850 31.154672 136.054706 4.596046 -7.933579 2.250763 nan nan nan -26.749471 -15.827555 -60.734019 0.354675 -12.931508 113.843789 13.575002 11.824464 20.848569 nan nan nan 4.966404 -8.247530 78.695265 -5.811305 -4.145330 -2.518651 -4.936529 -1.486797 6.064340 -12.143709 -1.498148 53.634062 18.634855 8.923628 8.225763 -12.471180 -16.067861 15.569063 -47.557932 10.720554 0.545182 -20.303933 -51.371673 37.096130 2.659895 -23.627603 -13.918552 -3.219786 22.978184 20.000702 87.536047 -10.632562 7.571755 21.888344 42.882159 46.911966 -48.080591 13.236657 -3.351572 
